<svg width="1024" height="1024" viewBox="0 0 1024 1024" fill="none" xmlns="http://www.w3.org/2000/svg">
  <path d="M760 300C760 211.634 688.366 140 600 140H380C291.634 140 220 211.634 220 300V480C220 568.366 291.634 640 380 640H420L360 760L520 640H600C688.366 640 760 568.366 760 480V300Z" fill="white"/>
  
  <circle cx="390" cy="390" r="50" fill="#4A90D9"/>
  <circle cx="512" cy="390" r="50" fill="#4A90D9"/>
  <circle cx="634" cy="390" r="50" fill="#4A90D9"/>
  
  <path d="M512 884C583.32 884 641 826.32 641 755C641 683.68 583.32 626 512 626C440.68 626 383 683.68 383 755C383 826.32 440.68 884 512 884Z" fill="#FF6B6B"/>
  <path d="M512 715C522 715 530 723 530 733V755C530 765 522 773 512 773C502 773 494 765 494 755V733C494 723 502 715 512 715Z" fill="white"/>
  <path d="M512 785C522 785 530 789 530 795C530 801 522 805 512 805C502 805 494 801 494 795C494 789 502 785 512 785Z" fill="white"/>
</svg>
